<?xml version="1.0" encoding="utf-8"?>
<!-- Generator: Adobe Illustrator 18.1.0, SVG Export Plug-In . SVG Version: 6.00 Build 0)  -->
<svg version="1.1" id="Layer_1" xmlns="http://www.w3.org/2000/svg" xmlns:xlink="http://www.w3.org/1999/xlink" x="0px" y="0px"
	 viewBox="0 0 1500 1500" enable-background="new 0 0 1500 1500" xml:space="preserve">
<g>
	
		<rect x="351.1" y="642.7" transform="matrix(-0.4138 0.9104 -0.9104 -0.4138 1319.9634 476.5514)" fill="none" width="310.8" height="41.1"/>
	<polygon fill="none" points="506.5,536 473.5,521 371.8,748.8 404.8,763.8 	"/>
	<path fill="none" d="M1188.8,1009c14.2-30.3,22.8-61.8,26.5-93.3c-6.5,3.7-13.1,7.3-19.7,10.8c-4.2,25.3-11.6,50.5-23.1,74.8
		c-67,142.6-237,204-379.7,136.9c-23.6-11.1-44.7-25.2-63.6-41.3c-4.2,0.9-8.3,1.8-12.5,2.8c-3.1,0.7-6.2,1.4-9.4,2.1l0,0
		c22.5,21,48.5,39,77.9,52.8C936.9,1225.7,1117.5,1160.6,1188.8,1009z"/>
	<path fill="none" d="M754.1,539.1c15.8,7.4,34.5,0.7,41.9-15.1c7.4-15.7,0.6-34.6-15.1-41.9c-15.8-7.4-34.6-0.6-42,15.1
		C731.6,513,738.4,531.7,754.1,539.1z"/>
	<path fill="none" d="M1040.8,998.7c-14.3,5.7-28.8,10.8-43.2,16.3c-19.5,7.4-39,15.3-58.8,22c-42,14.3-84.6,27-127.5,38.7
		c2.9,1.5,5.7,3.2,8.7,4.6c110.7,52,242.7,4.5,294.7-106.2c1.6-3.3,2.7-6.7,4.1-10.1c-0.8,0.4-1.6,0.7-2.4,1.1
		C1091.4,976.8,1066.4,988.3,1040.8,998.7z"/>
	<path fill="#0CA1CC" d="M1008.4,679.4c64.9,30.5,107.9,88.5,122.1,153.5c12.1-6.7,24.1-13.6,35.9-20.6c3-1.8,6-3.5,8.9-5.2
		c4.1-2.7,8.1-5.5,12.2-8.3c-22.4-75.3-75.2-141.2-151.9-177.3c-142.7-67-312.7-5.7-379.7,137c-37.3,79.4-34.8,167.2-0.7,241
		c21.7-4.2,43.3-8.7,64.8-13.6c-32.6-59.9-37.4-133.8-6.2-200.2C765.8,675,897.7,627.4,1008.4,679.4z"/>
	<path fill="#00335C" d="M1215.4,915.7c-3.7,31.5-12.3,63-26.5,93.3c-71.3,151.6-252,216.8-403.6,145.5
		c-29.4-13.8-55.4-31.8-77.9-52.8c-6,1.3-12,3-18.1,4.3c-18.3,3.8-36.6,7-54.9,11c0,0,0,0,0,0l230.3,101.7l138.6,65
		c138.6,65.1,164.6-25.6,164.6-25.6L1366,836.8c7.6-17.4,13.2-32.3,17.3-45.5c-5.5,5.8-11,11.4-16.6,16.9
		C1321.2,850.5,1269.4,885.1,1215.4,915.7z"/>
	<path fill="#00335C" d="M208.5,827.8l-7.4,15.6C164.2,922.3,345,987.9,345,987.9l84.1,37.3c67.1-1.5,134.4-9.6,200.4-20.6
		c2.6-0.5,5.2-1,7.8-1.5c-34.5-77.7-36.5-169.2,2.4-252.2c71.3-151.6,252-216.8,403.5-145.6c79.6,37.4,135.1,105.1,159.8,182.8
		c41.3-29.1,80.9-61.8,107.8-104.9c1.9-3,3.5-6.2,5.2-9.4l-59.4-27.9l-4.9-2.3c3.2-3.6,6.1-7.6,8.2-12.3c10.7-24-0.3-52.4-24.3-63
		l-39.2-17.4c8.9-23.5-1.9-50.2-25.1-60.5l-68.6-30.5c-23.2-10.3-50.3-0.3-61.7,22l-58.7-26.1c-24-10.7-52.4,0.3-63,24.3
		c-1.3,2.9-2.2,5.8-2.9,8.8l-52.5-24.3l-195.8-92c-215.9-113.9-240.8-10.3-240.8-10.3L209.4,826.1c0.6-0.4,1.2-0.8,1.7-1.2
		C210.2,825.9,209.4,826.9,208.5,827.8z M739,497.2c7.3-15.8,26.2-22.6,42-15.1c15.7,7.4,22.4,26.2,15.1,41.9
		c-7.4,15.8-26.2,22.5-41.9,15.1C738.4,531.7,731.6,513,739,497.2z M589.5,530.3l-128.6,283l-37.4-17l128.6-283L589.5,530.3z
		 M473.5,521l33,15L404.8,763.8l-33-15L473.5,521z"/>
	<path fill="#00B9EB" d="M1440.1,665.9c-4.9-31.3-29.5-57.2-56.9-72.1c-20.2-11.2-41.8-18.9-63.7-25.1c-10.2-2.9-20.5-5.2-30.9-7.3
		c-21.4-4.3-43.1-7.3-64.7-9.2c-5.6-0.5-11-1.5-16.5-1.9c5.4,1.4,10.8,3.1,16.1,4.7c35.7,10.2,72.2,24.6,93.4,56.2
		c5.6,8.5,8.6,17.8,9.9,27.4c0.7,5.2,1.1,10.4,0.8,15.6c-1,17.8-7.4,35.8-16.8,50.7c-32.8,52.8-84.6,89.9-135.4,124
		c-2.9,1.8-5.9,3.4-8.9,5.2c-24.4,14.5-49.3,28.4-74.7,41.2c-12.5,6.3-25.2,12.3-38.1,18.2c-21.3,9.7-42.9,19-65.1,27
		c-43.8,19.2-133.9,50-133.9,50c-73.3,24.6-149.1,42.1-225.2,55.8c-75.2,12.6-152,21.8-228.3,21.3c-11.4-0.1-22.6-0.4-33.8-0.9
		c-23.1-1.1-46-3.5-68.9-6.7c-8-1.2-16-2.2-24-3.6c-35.7-7.6-59.2-18.4-88.1-41.8c-37.6-30.4-24.9-91.4-20.9-100.3
		c11.3-25.2,24.6-46.6,43-66.4c0.9-1,1.6-2,2.6-2.9c-0.5,0.4-1.2,0.8-1.7,1.2c-13.8,9.4-30.3,19.3-43.3,29.8
		c-0.9,0.7-3.4,1.4-4.3,2.1c-37.4,30.2-72,65.3-92.5,109c-0.1,0.3-0.6,0.5-0.7,0.8c-4.6,9.5-7.5,19.8-8.8,30.3
		c-3.3,28.3,5.5,57.7,27.6,76.8c52.5,46.6,125.8,56.9,193,64.6c26.5,2,53,2.9,79.4,3.1c23,0.1,45.8-0.5,68.7-1.6
		c11.5-0.7,23.2-1.8,34.7-2.7c40.7-3.1,81.4-7.1,121.8-13.4c16.5-2.5,33-5.9,49.4-7.9c0,0,0,0,0,0c18.3-4,36.6-7.2,54.9-11
		c6-1.3,12-2.8,18.1-4.1l0,0c3.1-0.7,6.2-1.5,9.4-2.1c4.2-0.9,8.4-1.9,12.5-2.8c18.9,16.1,40,30.2,63.6,41.3
		c142.7,67.1,312.7,5.7,379.7-136.9c11.4-24.3,18.9-49.5,23.1-74.8c6.6-3.6,13.2-7.2,19.7-10.9c54.1-30.5,105.9-65.2,151.4-107.6
		c5.6-5.4,11.1-11.1,16.6-16.9c28-29.6,53-64.2,57.1-105.3c0.2-1.4,0.5-2.7,0.6-4.2C1441.3,676.3,1440.9,671,1440.1,665.9z
		 M1114.7,974.1c-52,110.7-184,158.2-294.7,106.2c-3-1.4-5.8-3.1-8.7-4.6c42.8-11.8,85.4-24.4,127.5-38.7
		c19.8-6.7,39.3-14.6,58.8-22c14.4-5.4,28.9-10.5,43.2-16.3c25.6-10.4,50.6-22,75.7-33.6c0.8-0.4,1.6-0.7,2.4-1.1
		C1117.5,967.4,1116.3,970.8,1114.7,974.1z"/>
</g>
</svg>
